<svg width="800" height="800" viewBox="0 0 800 800" fill="none" xmlns="http://www.w3.org/2000/svg">
<circle cx="399.5" cy="399.5" r="346.5" fill="#E4BE00"/>
<path d="M400 34.2856C198.343 34.2856 34.2856 198.343 34.2856 400C34.2856 601.657 198.343 765.714 400 765.714C601.657 765.714 765.714 601.657 765.714 400C765.714 198.343 601.657 34.2856 400 34.2856ZM400 720C223.257 720 79.9999 576.743 79.9999 400C79.9999 223.257 223.257 79.9999 400 79.9999C576.743 79.9999 720 223.257 720 400C720 576.743 576.743 720 400 720Z" fill="black"/>
<path d="M188.256 213.374L188.259 213.37C192.372 208.686 196.688 204.079 201.172 199.595C203.409 197.358 207.014 197.358 209.251 199.595C211.49 201.835 211.483 205.447 209.256 207.669L209.251 207.674C204.946 211.978 200.805 216.4 196.838 220.914L196.832 220.922C195.715 222.197 194.144 222.857 192.548 222.857C191.208 222.857 189.866 222.39 188.778 221.434L188.773 221.43C186.407 219.354 186.17 215.746 188.256 213.374Z" fill="black" stroke="black" stroke-width="11.4286"/>
<path d="M151.61 277.468L151.619 277.472C154.471 278.84 155.661 282.251 154.302 285.078L154.3 285.081C127.78 340.327 119.992 403.919 132.357 464.177L132.359 464.187C132.999 467.278 131.001 470.3 127.924 470.926L127.911 470.929C127.499 471.014 127.108 471.051 126.754 471.051C124.095 471.051 121.715 469.177 121.164 466.486C108.305 403.784 116.414 337.605 143.997 280.153L144.001 280.144C145.364 277.294 148.758 276.093 151.61 277.468Z" fill="black" stroke="black" stroke-width="11.4286"/>
<path d="M377.429 584.714H423.143C426.307 584.714 428.857 587.264 428.857 590.429C428.857 593.593 426.307 596.143 423.143 596.143H377.429C374.264 596.143 371.714 593.593 371.714 590.429C371.714 587.264 374.264 584.714 377.429 584.714Z" fill="black" stroke="black" stroke-width="11.4286"/>
<path d="M260.5 548H403.25H546" stroke="black" stroke-width="20"/>
<path d="M237 356H289.5H342" stroke="black" stroke-width="20"/>
<path d="M466 356H518.5H571" stroke="black" stroke-width="20"/>
</svg>
