<svg width="800" height="800" viewBox="0 0 800 800" fill="none" xmlns="http://www.w3.org/2000/svg">
<path d="M400 34.2856C198.343 34.2856 34.2856 198.343 34.2856 400C34.2856 601.657 198.343 765.714 400 765.714C601.657 765.714 765.714 601.657 765.714 400C765.714 198.343 601.657 34.2856 400 34.2856ZM400 720C223.257 720 79.9999 576.743 79.9999 400C79.9999 223.257 223.257 79.9999 400 79.9999C576.743 79.9999 720 223.257 720 400C720 576.743 576.743 720 400 720Z" fill="#E4BE00"/>
<path d="M213.291 195.554C208.823 191.086 201.6 191.086 197.131 195.554C192.56 200.126 188.16 204.823 183.966 209.6C179.794 214.343 180.263 221.566 185.006 225.726C187.177 227.634 189.874 228.571 192.549 228.571C195.714 228.571 198.88 227.257 201.131 224.686C205.017 220.263 209.074 215.931 213.291 211.714C217.76 207.257 217.76 200.023 213.291 195.554Z" fill="#E4BE00"/>
<path d="M154.091 272.32C148.377 269.566 141.566 271.989 138.846 277.68C110.72 336.263 102.457 403.714 115.566 467.634C116.674 473.04 121.44 476.766 126.754 476.766C127.509 476.766 128.286 476.686 129.063 476.526C135.246 475.269 139.234 469.211 137.954 463.029C125.84 403.989 133.474 341.669 159.451 287.554C162.183 281.874 159.783 275.051 154.091 272.32Z" fill="#E4BE00"/>
<path d="M423.143 579H377.429C371.109 579 366 584.109 366 590.429C366 596.749 371.109 601.857 377.429 601.857H423.143C429.463 601.857 434.571 596.749 434.571 590.429C434.571 584.109 429.463 579 423.143 579Z" fill="#E4BE00"/>
<path d="M260.5 548H403.25H546" stroke="#E4BE00" stroke-width="20"/>
<path d="M237 356H289.5H342" stroke="#E4BE00" stroke-width="20"/>
<path d="M466 356H518.5H571" stroke="#E4BE00" stroke-width="20"/>
</svg>
