<svg width="800" height="800" viewBox="0 0 800 800" fill="none" xmlns="http://www.w3.org/2000/svg">
<circle cx="394.5" cy="399.5" r="346.5" fill="#E42323"/>
<path d="M400 34.2856C198.343 34.2856 34.2856 198.343 34.2856 400C34.2856 601.657 198.343 765.714 400 765.714C601.657 765.714 765.714 601.657 765.714 400C765.714 198.343 601.657 34.2856 400 34.2856ZM400 720C223.257 720 79.9999 576.743 79.9999 400C79.9999 223.257 223.257 79.9999 400 79.9999C576.743 79.9999 720 223.257 720 400C720 576.743 576.743 720 400 720Z" fill="black"/>
<path d="M545.878 607.455C540.612 610.944 533.557 609.5 530.08 604.173C500.719 559.053 451.399 532.109 398.135 532.109C341.885 532.109 289.453 562.797 261.277 612.215C258.12 617.749 251.121 619.644 245.707 616.444C240.247 613.255 238.378 606.172 241.535 600.661C273.769 544.114 333.781 509 398.135 509C459.081 509 515.525 539.827 549.115 591.452C552.58 596.767 551.133 603.93 545.878 607.455Z" fill="black"/>
<path d="M313.52 406.297C315.76 409.188 319.131 410.697 322.537 410.697C324.994 410.697 327.474 409.908 329.554 408.274C334.537 404.4 335.417 397.211 331.531 392.24L276.228 321.325C274.114 318.617 270.88 316.994 267.44 316.925C263.885 316.868 260.697 318.354 258.491 320.971L204.605 384.788C200.537 389.611 201.131 396.834 205.954 400.891C210.811 404.983 218 404.331 222.057 399.543L266.857 346.48L313.52 406.297Z" fill="black"/>
<path d="M535.794 320.972C533.577 318.354 530.08 316.892 526.846 316.926C523.406 316.994 520.171 318.606 518.057 321.326L462.754 392.24C458.868 397.223 459.748 404.4 464.731 408.274C466.823 409.909 469.291 410.697 471.748 410.697C475.154 410.697 478.526 409.189 480.766 406.297L527.417 346.492L572.217 399.554C576.263 404.366 583.463 405.017 588.32 400.903C593.143 396.846 593.748 389.623 589.668 384.8L535.794 320.972Z" fill="black"/>
<path d="M213.291 195.554C208.823 191.085 201.6 191.085 197.131 195.554C192.56 200.125 188.16 204.823 183.965 209.6C179.794 214.343 180.263 221.565 185.005 225.725C187.177 227.634 189.874 228.571 192.548 228.571C195.714 228.571 198.88 227.257 201.131 224.685C205.017 220.263 209.074 215.931 213.291 211.714C217.76 207.257 217.76 200.023 213.291 195.554Z" fill="black"/>
<path d="M587.11 445.627C580.94 446.996 577.06 453.088 578.429 459.257C579.829 465.569 581.427 471.803 583.203 477.907C584.963 483.974 591.306 487.459 597.363 485.693C600.139 484.887 602.379 483.115 603.815 480.86C605.516 478.189 606.108 474.813 605.149 471.533C603.505 465.879 602.032 460.131 600.74 454.308C599.381 448.145 593.279 444.259 587.11 445.627Z" fill="black"/>
<path d="M154.091 272.32C148.377 269.566 141.566 271.989 138.846 277.68C110.72 336.263 102.457 403.714 115.566 467.634C116.674 473.04 121.44 476.766 126.754 476.766C127.509 476.766 128.286 476.686 129.063 476.526C135.246 475.269 139.234 469.211 137.954 463.029C125.84 403.989 133.474 341.669 159.451 287.554C162.183 281.874 159.783 275.051 154.091 272.32Z" fill="black"/>
<path d="M417.977 635.234H372.263C365.943 635.234 360.834 640.343 360.834 646.663C360.834 652.983 365.943 658.092 372.263 658.092H417.977C424.297 658.092 429.405 652.983 429.405 646.663C429.405 640.343 424.297 635.234 417.977 635.234Z" fill="black"/>
</svg>
