<svg width="800" height="800" viewBox="0 0 800 800" fill="none" xmlns="http://www.w3.org/2000/svg">
<path d="M400 34.2857C198.343 34.2857 34.2856 198.343 34.2856 400C34.2856 601.657 198.343 765.714 400 765.714C601.657 765.714 765.714 601.657 765.714 400C765.714 198.343 601.657 34.2857 400 34.2857ZM400 720C223.257 720 79.9999 576.743 79.9999 400C79.9999 223.257 223.257 80 400 80C576.743 80 720 223.257 720 400C720 576.743 576.743 720 400 720Z" fill="#0DBF28"/>
<path d="M547.223 527.909C541.943 524.457 534.869 525.886 531.383 531.154C501.943 575.783 452.491 602.434 399.086 602.434C342.686 602.434 290.114 572.08 261.863 523.2C258.697 517.726 251.68 515.851 246.251 519.017C240.777 522.171 238.903 529.177 242.069 534.629C274.389 590.56 334.56 625.291 399.086 625.291C460.194 625.291 516.789 594.8 550.469 543.737C553.943 538.48 552.491 531.394 547.223 527.909Z" fill="#0DBF28"/>
<path d="M313.52 406.297C315.76 409.188 319.131 410.697 322.537 410.697C324.994 410.697 327.474 409.909 329.554 408.274C334.537 404.4 335.417 397.211 331.531 392.24L276.229 321.326C274.114 318.617 270.88 316.994 267.44 316.926C263.886 316.869 260.697 318.354 258.491 320.971L204.606 384.788C200.537 389.611 201.131 396.834 205.954 400.891C210.811 404.983 218 404.331 222.057 399.543L266.857 346.48L313.52 406.297Z" fill="#0DBF28"/>
<path d="M535.794 320.971C533.577 318.354 530.08 316.891 526.846 316.926C523.406 316.994 520.171 318.606 518.057 321.326L462.754 392.24C458.868 397.223 459.748 404.4 464.731 408.274C466.823 409.909 469.291 410.697 471.748 410.697C475.154 410.697 478.526 409.189 480.766 406.297L527.417 346.491L572.217 399.554C576.263 404.366 583.463 405.017 588.32 400.903C593.143 396.846 593.748 389.623 589.668 384.8L535.794 320.971Z" fill="#0DBF28"/>
<path d="M242.177 175.485C238.114 170.614 230.91 170.002 226.08 174.059C176.24 215.76 140.815 273.751 126.308 337.369C125.081 342.749 127.879 348.112 132.717 350.31C133.404 350.623 134.144 350.871 134.918 351.047C141.067 352.46 147.204 348.595 148.596 342.437C161.99 283.674 194.72 230.094 240.755 191.572C245.592 187.531 246.229 180.327 242.177 175.485Z" fill="#0DBF28"/>
<path d="M417.977 635.234H372.263C365.943 635.234 360.834 640.343 360.834 646.663C360.834 652.983 365.943 658.092 372.263 658.092H417.977C424.297 658.092 429.406 652.983 429.406 646.663C429.406 640.343 424.297 635.234 417.977 635.234Z" fill="#0DBF28"/>
</svg>
