<svg width="800" height="800" viewBox="0 0 800 800" fill="none" xmlns="http://www.w3.org/2000/svg">
<path d="M400 34.2856C198.343 34.2856 34.2856 198.343 34.2856 400C34.2856 601.657 198.343 765.714 400 765.714C601.657 765.714 765.714 601.657 765.714 400C765.714 198.343 601.657 34.2856 400 34.2856ZM400 720C223.257 720 79.9999 576.743 79.9999 400C79.9999 223.257 223.257 79.9999 400 79.9999C576.743 79.9999 720 223.257 720 400C720 576.743 576.743 720 400 720Z" fill="#F07D1E"/>
<path d="M213.291 195.554C208.823 191.086 201.6 191.086 197.131 195.554C192.56 200.126 188.16 204.823 183.966 209.6C179.794 214.343 180.263 221.566 185.006 225.726C187.177 227.634 189.874 228.571 192.549 228.571C195.714 228.571 198.88 227.257 201.131 224.686C205.017 220.263 209.074 215.931 213.291 211.714C217.76 207.257 217.76 200.023 213.291 195.554Z" fill="#F07D1E"/>
<path d="M154.091 272.32C148.377 269.566 141.566 271.989 138.846 277.68C110.72 336.263 102.457 403.714 115.566 467.634C116.674 473.04 121.44 476.766 126.754 476.766C127.509 476.766 128.286 476.686 129.063 476.526C135.246 475.269 139.234 469.211 137.954 463.029C125.84 403.989 133.474 341.669 159.451 287.554C162.183 281.874 159.783 275.051 154.091 272.32Z" fill="#F07D1E"/>
<path d="M395.419 563.489L351.253 575.286C345.147 576.917 341.53 583.17 343.161 589.276C344.792 595.382 351.046 599 357.152 597.369L401.318 585.572C407.424 583.941 411.041 577.687 409.41 571.581C407.779 565.475 401.525 561.858 395.419 563.489Z" fill="#F07D1E"/>
<path d="M260.5 548L395.83 526.251C398.924 525.753 402.077 525.744 405.175 526.223L546 548" stroke="#F07D1E" stroke-width="20"/>
<path d="M237 356L290.5 362L344 368" stroke="#F07D1E" stroke-width="20"/>
<path d="M467 374L519 365L571 356" stroke="#F07D1E" stroke-width="20"/>
</svg>
