<svg width="800" height="800" viewBox="0 0 800 800" fill="none" xmlns="http://www.w3.org/2000/svg">
<circle cx="394.5" cy="419.5" r="346.5" fill="#D8EB09"/>
<path d="M39.9999 400C39.9999 201.499 201.499 39.9999 400 39.9999C598.501 39.9999 760 201.499 760 400C760 598.501 598.501 760 400 760C201.499 760 39.9999 598.501 39.9999 400ZM74.2856 400C74.2856 579.899 220.101 725.714 400 725.714C579.899 725.714 725.714 579.899 725.714 400C725.714 220.101 579.899 74.2856 400 74.2856C220.101 74.2856 74.2856 220.101 74.2856 400Z" fill="black" stroke="black" stroke-width="11.4286"/>
<path d="M188.256 213.374L188.259 213.37C192.372 208.686 196.688 204.079 201.172 199.595C203.409 197.358 207.014 197.358 209.251 199.595C211.49 201.835 211.483 205.447 209.256 207.669L209.251 207.674C204.946 211.978 200.805 216.4 196.838 220.914L196.832 220.922C195.715 222.197 194.144 222.857 192.548 222.857C191.208 222.857 189.866 222.39 188.778 221.434L188.773 221.43C186.407 219.354 186.17 215.746 188.256 213.374Z" fill="black" stroke="black" stroke-width="11.4286"/>
<path d="M151.61 277.468L151.619 277.472C154.471 278.84 155.661 282.251 154.302 285.078L154.3 285.081C127.78 340.327 119.992 403.919 132.357 464.177L132.359 464.187C132.999 467.278 131.001 470.3 127.924 470.926L127.911 470.929C127.499 471.014 127.108 471.051 126.754 471.051C124.095 471.051 121.715 469.177 121.164 466.486C108.305 403.784 116.414 337.605 143.997 280.153L144.001 280.144C145.364 277.294 148.758 276.093 151.61 277.468Z" fill="black" stroke="black" stroke-width="11.4286"/>
<path d="M372.263 640.949H417.977C421.141 640.949 423.691 643.499 423.691 646.663C423.691 649.827 421.141 652.377 417.977 652.377H372.263C369.098 652.377 366.548 649.827 366.548 646.663C366.548 643.499 369.098 640.949 372.263 640.949Z" fill="black" stroke="black" stroke-width="11.4286"/>
<path d="M237 356H289.5H342" stroke="black" stroke-width="20"/>
<path d="M466 356H518.5H571" stroke="black" stroke-width="20"/>
<path d="M259.712 519.343L259.701 519.347C258.753 519.696 258.224 520.069 257.943 520.325C288.906 554.45 347.235 576.286 410.643 576.286C470.717 576.286 525.702 557.097 558.051 525.781C557.792 525.55 557.347 525.241 556.647 524.943C555.048 524.277 552.993 524.028 551.004 524.288C548.951 524.556 547.593 525.273 546.985 525.861C516.169 555.737 465.095 573.086 410.643 573.086C353.171 573.086 298.79 553.344 269.106 520.494L259.712 519.343ZM259.712 519.343L259.722 519.339M259.712 519.343L259.722 519.339M259.722 519.339C261.393 518.716 263.473 518.549 265.42 518.882M259.722 519.339L265.42 518.882M265.42 518.882C267.44 519.228 268.645 519.984 269.105 520.493L265.42 518.882ZM257.648 519.977C257.648 519.977 257.649 519.978 257.65 519.981C257.648 519.978 257.648 519.977 257.648 519.977Z" fill="black" stroke="black" stroke-width="11.4286"/>
</svg>
